# xmcd CD database file
#
# Track frame offsets:
#	150
#	14073
#	26537
#	38889
#	50301
#	61015
#	74905
#	85422
#	93226
#	107969
#	121124
#	131139
#
# Disc length: 1889 seconds
#
# Revision: 0
# Processed by: cddbd v1.5.2PL0 Copyright (c) Steve Scherf et al.
# Submitted via: CDex 1.70beta2
#
DISCID=a6075f0c
DTITLE=Various Artist - Golden Memories
DYEAR=1900
DGENRE=Jazz
TTITLE0=Frank Sinatra - Three Coins In A Fountain
TTITLE1=Andrews Sisters - Boogie Woogie Bugle Boy
TTITLE2=Perry Como - Don't Let The Stars Get In Your Eyes
TTITLE3=Hank Snow - With This Ring I Thee Wed
TTITLE4=Four Lads, The - Istanbul (Not Constantinople)
TTITLE5=Bing Crosby - Galway Bay
TTITLE6=Frankie Laine and Jo Stafford - Hey Good Lookin'
TTITLE7=Jim Reeves - Bimbo
TTITLE8=Woody Herman - Woodchoppers Ball
TTITLE9=Nat King Cole - Answer Me My Love
TTITLE10=Frankie Lane - I Believe
TTITLE11=Johnnie Ray - Walking My Baby Back Home
EXTD=
EXTT0=
EXTT1=
EXTT2=
EXTT3=
EXTT4=
EXTT5=
EXTT6=
EXTT7=
EXTT8=
EXTT9=
EXTT10=
EXTT11=
PLAYORDER=
